# xmcd CD database file
# Copyright (C) 1996 Ti Kan
#
# Track frame offsets:
# 	183
# 	14695
# 	30620
# 	55245
# 	70320
# 	88883
# 	103508
# 	125558
# 	139670
# 	160083
# 	172883
# 	198133
# 	222745
# 	239720
# 	262358
# 	289670
# 	300695
# 	318045
#
# Disc length: 4559 seconds
#
# Revision: 1
# Processed by: cddbd v1.4b41PL1 Copyright (c) Steve Scherf et al.
# Submitted via: DiscPlay 3.4.1
#
DISCID=0f11cd12
DTITLE=Climax Blues Band - Rock and Pop Legends
DYEAR=1900
DGENRE=
TTITLE0=Couldn't Get It Right
TTITLE1=Sense Of Direction
TTITLE2=Shake You Love
TTITLE3=Towards The Sun
TTITLE4=Chasing Change
TTITLE5=Before You Reach The Grave
TTITLE6=Mr. Goodtime
TTITLE7=Rollin' Home
TTITLE8=Mighty Fire
TTITLE9=Looking For My Baby
TTITLE10=Rich Man
TTITLE11=Standing By A River
TTITLE12=Loosen Up
TTITLE13=Mole On The Dole
TTITLE14=All The Time In The World
TTITLE15=Don't You Mind People Grinning In Your Face
TTITLE16=You Make Me Sick
TTITLE17=Running Out Of Time
EXTD=
EXTT0=
EXTT1=
EXTT2=
EXTT3=
EXTT4=
EXTT5=
EXTT6=
EXTT7=
EXTT8=
EXTT9=
EXTT10=
EXTT11=
EXTT12=
EXTT13=
EXTT14=
EXTT15=
EXTT16=
EXTT17=
PLAYORDER=
